<svg width="73" height="72" viewBox="0 0 73 72" fill="none" xmlns="http://www.w3.org/2000/svg">
<g clip-path="url(#clip0_7_1328)">
<path d="M36.5 -1.57361e-06C46.0478 -1.99096e-06 55.2045 3.79284 61.9558 10.5442C68.7072 17.2955 72.5 26.4522 72.5 36C72.5 45.5478 68.7072 54.7045 61.9559 61.4558C55.2045 68.2072 46.0478 72 36.5 72C26.9522 72 17.7955 68.2072 11.0442 61.4558C4.29285 54.7045 0.499999 45.5478 0.499998 36C0.499998 26.4522 4.29284 17.2955 11.0442 10.5442C17.7955 3.79285 26.9522 -1.15626e-06 36.5 -1.57361e-06ZM20.75 33.75C20.1533 33.75 19.581 33.9871 19.159 34.409C18.7371 34.831 18.5 35.4033 18.5 36C18.5 36.5967 18.7371 37.169 19.159 37.591C19.581 38.0129 20.1533 38.25 20.75 38.25L46.8185 38.25L37.157 47.907C36.7345 48.3295 36.4972 48.9025 36.4972 49.5C36.4972 50.0975 36.7345 50.6705 37.157 51.093C37.5795 51.5155 38.1525 51.7528 38.75 51.7528C39.3475 51.7528 39.9205 51.5155 40.343 51.093L53.843 37.593C54.0525 37.384 54.2188 37.1357 54.3322 36.8623C54.4456 36.589 54.504 36.2959 54.504 36C54.504 35.704 54.4456 35.411 54.3322 35.1376C54.2188 34.8643 54.0525 34.616 53.843 34.407L40.343 20.907C39.9205 20.4845 39.3475 20.2472 38.75 20.2472C38.1525 20.2472 37.5795 20.4845 37.157 20.907C36.7345 21.3295 36.4972 21.9025 36.4972 22.5C36.4972 23.0975 36.7345 23.6705 37.157 24.093L46.8185 33.75L20.75 33.75Z" fill="#F5FBF2"/>
</g>
<defs>
<clipPath id="clip0_7_1328">
<rect width="72" height="72" fill="white" transform="translate(0.5 72) rotate(-90)"/>
</clipPath>
</defs>
</svg>
